<svg xmlns="http://www.w3.org/2000/svg" viewBox="0 0 37 32">
    <path fill="currentColor" d="M36.833 4.167h-36.333c-0.276 0-0.5-0.224-0.5-0.5v0-2c0-0.276 0.224-0.5 0.5-0.5v0h36.333c0.276 0 0.5 0.224 0.5 0.5v0 2c0 0.276-0.224 0.5-0.5 0.5v0zM36.833 17.5h-36.333c-0.276 0-0.5-0.224-0.5-0.5v0-2c0-0.276 0.224-0.5 0.5-0.5v0h36.333c0.276 0 0.5 0.224 0.5 0.5v0 2c0 0.276-0.224 0.5-0.5 0.5v0zM36.833 30.833h-36.333c-0.276 0-0.5-0.224-0.5-0.5v0-2c0-0.276 0.224-0.5 0.5-0.5v0h36.333c0.276 0 0.5 0.224 0.5 0.5v0 2c0 0.276-0.224 0.5-0.5 0.5v0z"></path>
</svg>