<svg xmlns="http://www.w3.org/2000/svg" viewBox="0 0 3203.000000 2493.000000">
<g transform="translate(0.000000,2493.000000) scale(0.100000,-0.100000)"
fill="currentColor" stroke="none">
<path d="M14390 24904 c-1132 -52 -1776 -117 -2847 -289 -345 -55 -618 -115
-1766 -384 -1504 -353 -1516 -357 -2012 -523 -404 -135 -570 -197 -930 -351
-465 -197 -1172 -570 -1530 -806 -127 -83 -1420 -1004 -1580 -1125 -367 -276
-696 -604 -955 -951 -197 -264 -1045 -1453 -1151 -1615 -232 -352 -402 -690
-514 -1020 -18 -52 -51 -140 -75 -195 -107 -249 -205 -545 -279 -841 -61 -241
-539 -2282 -566 -2414 -169 -828 -189 -1755 -54 -2590 47 -295 54 -327 390
-1758 322 -1375 344 -1457 489 -1847 181 -487 368 -858 635 -1265 104 -158
965 -1368 1129 -1585 343 -456 767 -881 1201 -1205 168 -126 1478 -1061 1570
-1121 234 -154 415 -260 691 -408 192 -102 546 -273 724 -348 285 -122 749
-293 970 -359 460 -137 583 -168 1925 -483 1408 -330 1317 -309 1620 -370 654
-131 1569 -264 2350 -341 596 -58 1135 -101 1585 -126 389 -21 1395 -29 1775
-15 165 7 514 16 775 21 679 13 982 34 1499 106 342 47 688 110 1037 190 l121
27 254 -58 c140 -32 347 -84 460 -116 302 -85 469 -126 1609 -394 980 -230
1042 -243 1165 -249 72 -4 193 -15 270 -24 370 -42 944 -2 1500 107 929 182
1237 250 1673 372 607 170 925 286 1337 490 420 207 622 357 1086 802 362 348
483 491 538 632 13 33 62 139 108 235 304 627 454 1049 633 1782 98 402 125
560 250 1458 l61 435 -6 170 -7 170 -147 625 -147 625 27 90 c26 88 518 2171
564 2390 13 61 31 189 40 285 9 96 18 182 20 190 8 28 45 385 60 570 28 359
38 689 32 1100 -9 687 -66 1232 -197 1880 -42 211 -516 2236 -607 2595 -199
788 -433 1375 -728 1830 -60 92 -630 894 -948 1335 -260 359 -487 593 -847
874 -147 115 -1467 1063 -1660 1193 -505 338 -1159 697 -2005 1101 -325 155
-551 241 -860 327 -184 51 -2234 536 -2600 615 -681 147 -1547 255 -2600 325
-132 9 -361 27 -510 41 -148 13 -391 35 -540 49 -474 43 -1045 82 -1785 121
-272 15 -1511 27 -1720 18z m1559 -5009 c838 -38 1437 -80 2391 -169 146 -14
400 -34 565 -46 1791 -124 2905 -319 3630 -635 172 -75 719 -341 960 -468 832
-435 1361 -770 1800 -1136 136 -114 440 -423 533 -542 382 -494 665 -1145 887
-2039 298 -1203 367 -2533 200 -3865 -13 -104 -29 -242 -35 -305 -15 -160 -41
-287 -100 -490 -207 -717 -366 -1055 -680 -1451 l-83 -104 7 -136 c17 -374
109 -820 288 -1399 64 -209 109 -326 242 -626 119 -272 145 -355 153 -500 26
-469 -275 -868 -758 -1003 -426 -119 -1118 -81 -1909 105 -107 26 -516 138
-909 250 -614 175 -740 208 -900 235 -289 47 -736 139 -1196 244 l-420 97
-230 -51 c-310 -67 -448 -93 -720 -135 -579 -89 -922 -120 -1540 -136 -209 -5
-571 -15 -805 -21 -475 -13 -1572 -7 -1875 10 -1257 72 -2582 219 -3575 396
-1292 231 -2250 530 -3163 987 -592 296 -1060 595 -1471 942 -151 126 -422
390 -575 559 -289 320 -559 696 -770 1072 -425 757 -706 1671 -810 2640 -77
712 -44 1460 94 2166 63 319 184 725 295 994 23 55 62 152 86 215 24 63 70
180 101 260 130 334 388 772 684 1161 250 329 566 640 924 909 378 284 1024
653 1625 927 524 239 1294 510 1814 639 460 114 1060 217 1826 313 1102 140
2286 186 3419 136z"/>
<path d="M20100 15739 c-389 -32 -778 -165 -1096 -375 -442 -291 -758 -686
-938 -1175 -222 -603 -183 -1307 105 -1882 187 -372 484 -705 824 -925 126
-81 141 -90 223 -131 376 -189 793 -274 1225 -250 388 22 757 137 1097 343 47
28 91 57 98 63 7 7 17 13 21 13 4 0 16 8 27 18 11 9 49 39 84 67 143 110 219
183 332 320 125 151 123 148 145 182 9 15 20 30 23 33 14 13 113 186 158 275
117 236 199 511 232 785 18 147 12 458 -10 613 -50 339 -173 671 -349 942
-115 178 -285 374 -433 501 -138 118 -137 116 -226 177 -161 109 -275 170
-444 238 -361 144 -719 199 -1098 168z"/>
<path d="M12230 15579 c-351 -25 -740 -146 -1025 -318 -517 -311 -887 -776
-1060 -1331 -185 -592 -134 -1243 141 -1793 216 -431 615 -832 1040 -1045 813
-407 1782 -325 2504 211 381 284 667 675 824 1126 210 604 165 1286 -125 1863
-170 339 -474 681 -794 892 -175 115 -259 160 -427 227 -250 100 -474 151
-741 169 -148 10 -187 10 -337 -1z"/>
</g>
</svg>
