
<svg xmlns="http://www.w3.org/2000/svg" viewBox="0 0 160 160"><g fill="none" fill-rule="evenodd"><g transform="translate(9 9)"><path d="m42.1262 100.7598c-16.988-16.988-16.988-44.531 0-61.519 16.988-16.987 44.531-16.987 61.519 0 16.987 16.988 16.987 44.531 0 61.519-16.988 16.988-44.531 16.988-61.519 0" fill="#4a4d51"/><path d="m121.8938 119.4976c-27.336 27.337-71.658 27.337-98.995 0-27.337-27.336-27.337-71.658 0-98.995 27.337-27.336 71.659-27.337 98.995 0 27.337 27.337 27.337 71.659 0 98.995z" stroke="#1e2126" stroke-dasharray="4 5" stroke-linecap="round" stroke-linejoin="round" stroke-width="2"/><path d="m1.8313 140.566c-2.441-2.441-2.441-6.4 0-8.841l36.771-36.771 8.841 8.841-36.771 36.771c-2.442 2.441-6.4 2.441-8.841 0" fill="#c9d2f0"/><path d="m1.8313 140.566c-2.441-2.441-2.441-6.4 0-8.841l36.771-36.771 8.841 8.841-36.771 36.771c-2.442 2.441-6.4 2.441-8.841 0z" stroke="#1e2126" stroke-linecap="round" stroke-linejoin="round" stroke-width="2"/><path d="m12.1457 139.0923-8.841-8.841c-1.628-1.628-1.628-4.266 0-5.894l17.437-17.437c1.627-1.628 4.266-1.628 5.894 0l8.841 8.841c1.627 1.628 1.627 4.267 0 5.894l-17.437 17.437c-1.627 1.627-4.267 1.627-5.894 0" fill="#9f7373"/><path d="m12.1457 139.0923-8.841-8.841c-1.628-1.628-1.628-4.266 0-5.894l17.437-17.437c1.627-1.628 4.266-1.628 5.894 0l8.841 8.841c1.627 1.628 1.627 4.267 0 5.894l-17.437 17.437c-1.627 1.627-4.267 1.627-5.894 0z" stroke="#1e2126" stroke-linecap="round" stroke-linejoin="round" stroke-width="2"/><path d="m44.112 98.2847c-15.621-15.621-15.621-40.947 0-56.568s40.948-15.621 56.569-.001c15.621 15.621 15.621 40.948 0 56.569s-40.948 15.621-56.569 0m63.895-63.895c-19.667-19.667-51.554-19.667-71.221 0s-19.667 51.554 0 71.221 51.554 19.667 71.221 0 19.667-51.554 0-71.221" fill="#f3f9ff"/><g stroke="#1e2126" stroke-linecap="round" stroke-linejoin="round" stroke-width="2"><path d="m116.386 94.545c-.533.953-1.099 1.893-1.698 2.817m-6.6809 8.2489c-19.667 19.667-51.554 19.667-71.221 0s-19.667-51.554 0-71.221 51.554-19.667 71.221 0c14.763 14.763 18.444 36.41 11.044 54.607"/><path d="m44.112 98.2847c-15.621-15.621-15.621-40.947 0-56.568s40.948-15.621 56.569-.001c15.621 15.621 15.621 40.948 0 56.569s-40.948 15.621-56.569 0z"/></g></g><path d="m0-1h160v160h-160z"/></g></svg>