
<svg xmlns="http://www.w3.org/2000/svg" viewBox="0 0 24 24">
    <path
    fill-rule="evenodd"
    clip-rule="evenodd"
    fill="currentColor"
    d="M22.545 4.87988V5.87988H23.28C23.4126 5.87988 23.52 5.98733 23.52 6.11988V10.6399C23.52 10.7724 23.4126 10.8799 23.28 10.8799H17.76C17.6275 10.8799 17.52 10.7724 17.52 10.6399V6.11988C17.52 5.98733 17.6275 5.87988 17.76 5.87988H18.52V4.87988C18.52 3.75988 19.47 2.87988 20.52 2.87988C21.57 2.87988 22.545 3.75988 22.545 4.87988ZM19.52 5.87988H21.52V4.87988C21.52 4.30845 21.0534 3.87988 20.52 3.87988C19.9867 3.87988 19.52 4.30845 19.52 4.87988V5.87988Z"></path><path fill-rule="evenodd" clip-rule="evenodd" fill="currentColor" d="M4.85 8.26429L15.84 5.84426V10.5599C15.84 11.6202 16.6996 12.4799 17.76 12.4799H21V19.0586H19.1V17.9302L12.7065 16.524L10.36 19.6233C10.1776 19.8633 9.89545 19.9998 9.6 19.9998C9.524 19.9998 9.4461 19.9904 9.3701 19.9725L5.5701 19.0313C5.1464 18.925 4.85 18.5495 4.85 18.1175V8.26429ZM9.2181 17.9942L6.75 17.3824V15.2111L10.6706 16.0751L9.2181 17.9942Z"></path><path d="M3.9 8.25981H2V15.2939H3.9V8.25981Z" fill="currentColor">
    </path>
</svg>