<svg xmlns="http://www.w3.org/2000/svg" fill="none" viewBox="0 0 24 24"><path fill="currentColor" fill-rule="evenodd" d="M2 5a3 3 0 0 1 3-3h14a3 3 0 0 1 3 3v14a3 3 0 0 1-3 3H5a3 3 0 0 1-3-3V5Zm13.35 8.13 3.5 4.67c.37.5.02 1.2-.6 1.2H5.81a.75.75 0 0 1-.59-1.22l1.86-2.32a1.5 1.5 0 0 1 2.34 0l.5.64 2.23-2.97a2 2 0 0 1 3.2 0ZM10.2 5.98c.23-.91-.88-1.55-1.55-.9a.93.93 0 0 1-1.3 0c-.67-.65-1.78-.01-1.55.9a.93.93 0 0 1-.65 1.12c-.9.26-.9 1.54 0 1.8.48.14.77.63.65 1.12-.23.91.88 1.55 1.55.9a.93.93 0 0 1 1.3 0c.67.65 1.78.01 1.55-.9a.93.93 0 0 1 .65-1.12c.9-.26.9-1.54 0-1.8a.93.93 0 0 1-.65-1.12Z" clip-rule="evenodd" class=""></path></svg>